<svg
    fill="#ccf381"
    xmlns="http://www.w3.org/2000/svg"
    width="124"
    height="120"
    viewBox="0 0 211 212"
    id="avatar-shapes"
    data-shape="true"
>
    <path d="m 0 2 a 1.5 1.5 0 1 1 -3 0 a 1.5 1.5 0 0 1 3 0 z m 18.968 0 a 1.5 1.5 0 1 1 -3 0 a 1.5 1.5 0 0 1 3 0 z m 18.968 0 a 1.5 1.5 0 1 1 -3.001 0 a 1.5 1.5 0 0 1 3.001 0 z m 18.968 0 a 1.5 1.5 0 1 1 -3.001 0 a 1.5 1.5 0 0 1 3 0 z m 18.968 0 a 1.5 1.5 0 1 1 -3.001 0 a 1.5 1.5 0 0 1 3 0 z m 18.967 0 a 1.5 1.5 0 1 1 -3 0 a 1.5 1.5 0 0 1 3 0 z m 18.968 0 a 1.5 1.5 0 1 1 -3 0 a 1.5 1.5 0 0 1 3 0 z m 18.969 0 a 1.5 1.5 0 1 1 -3.001 0 a 1.5 1.5 0 0 1 3.001 0 z m 18.968 0 a 1.5 1.5 0 1 1 -3.001 0 a 1.5 1.5 0 0 1 3 0 z m 18.968 0 a 1.5 1.5 0 1 1 -3.002 0 a 1.5 1.5 0 0 1 3.002 0 z m 18.967 0 a 1.5 1.5 0 1 1 -3 0 a 1.5 1.5 0 0 1 3 0 z m 18.968 0 a 1.5 1.5 0 1 1 -3.001 0 a 1.5 1.5 0 0 1 3.001 0 z m -208.647 19.224 a 1.5 1.5 0 1 1 -3 0 a 1.5 1.5 0 0 1 3 0 z m 18.968 0 a 1.5 1.5 0 1 1 -3 -0.001 a 1.5 1.5 0 0 1 3 0 z m 18.968 0 a 1.5 1.5 0 1 1 -3.001 -0.001 a 1.5 1.5 0 0 1 3.001 0 z m 18.968 0 a 1.5 1.5 0 1 1 -3.001 -0.001 a 1.5 1.5 0 0 1 3 0 z m 18.968 0 a 1.5 1.5 0 1 1 -3.001 -0.001 a 1.5 1.5 0 0 1 3 0 z m 18.967 0 a 1.5 1.5 0 1 1 -3 0 a 1.5 1.5 0 0 1 3 0 z m 18.968 0 a 1.5 1.5 0 1 1 -3 0 a 1.5 1.5 0 0 1 3 0 z m 18.969 0 a 1.5 1.5 0 1 1 -3.001 -0.001 a 1.5 1.5 0 0 1 3.001 0 z m 18.968 0 a 1.5 1.5 0 1 1 -3.001 -0.001 a 1.5 1.5 0 0 1 3 0 z m 18.968 0 a 1.5 1.5 0 1 1 -3.002 -0.001 a 1.5 1.5 0 0 1 3.002 0 z m 18.967 0 a 1.5 1.5 0 1 1 -3 -0.001 a 1.5 1.5 0 0 1 3 0 z m 18.968 0 a 1.5 1.5 0 1 1 -3.001 -0.001 a 1.5 1.5 0 0 1 3.001 0 z m -208.647 19.222 a 1.5 1.5 0 1 1 -2.998 0.002 a 1.5 1.5 0 0 1 2.998 -0.002 z m 18.968 0 a 1.5 1.5 0 1 1 -3 0 a 1.5 1.5 0 0 1 3 0 z m 18.968 0 a 1.5 1.5 0 1 1 -3 0 a 1.5 1.5 0 0 1 3 0 z m 18.968 0 a 1.5 1.5 0 1 1 -3 0 a 1.5 1.5 0 0 1 3 0 z m 18.968 0 a 1.5 1.5 0 1 1 -3 0 a 1.5 1.5 0 0 1 3 0 z m 18.967 0 a 1.5 1.5 0 1 1 -2.998 0.002 a 1.5 1.5 0 0 1 2.998 -0.002 z m 18.968 0 a 1.5 1.5 0 1 1 -2.998 0.002 a 1.5 1.5 0 0 1 2.998 -0.002 z m 18.969 0 a 1.5 1.5 0 1 1 -3 0 a 1.5 1.5 0 0 1 3 0 z m 18.968 0 a 1.5 1.5 0 1 1 -3 0 a 1.5 1.5 0 0 1 3 0 z m 18.968 0 a 1.5 1.5 0 1 1 -3 0 a 1.5 1.5 0 0 1 3 0 z m 18.967 0 a 1.5 1.5 0 1 1 -3 0 a 1.5 1.5 0 0 1 3 0 z m 18.968 0 a 1.5 1.5 0 1 1 -3 0 a 1.5 1.5 0 0 1 3 0 z m -208.647 19.224 a 1.5 1.5 0 1 1 -2.998 0.001 a 1.5 1.5 0 0 1 2.998 -0.001 z m 18.968 0 a 1.5 1.5 0 1 1 -3 0 a 1.5 1.5 0 0 1 3 0 z m 18.968 0 a 1.5 1.5 0 1 1 -3 0 a 1.5 1.5 0 0 1 3 0 z m 18.968 0 a 1.5 1.5 0 1 1 -3 0 a 1.5 1.5 0 0 1 3 0 z m 18.968 0 a 1.5 1.5 0 1 1 -3 0 a 1.5 1.5 0 0 1 3 0 z m 18.967 0 a 1.5 1.5 0 1 1 -2.998 0.001 a 1.5 1.5 0 0 1 2.998 -0.001 z m 18.968 0 a 1.5 1.5 0 1 1 -2.998 0.001 a 1.5 1.5 0 0 1 2.998 -0.001 z m 18.969 0 a 1.5 1.5 0 1 1 -3 0 a 1.5 1.5 0 0 1 3 0 z m 18.968 0 a 1.5 1.5 0 1 1 -3 0 a 1.5 1.5 0 0 1 3 0 z m 18.968 0 a 1.5 1.5 0 1 1 -3 0 a 1.5 1.5 0 0 1 3 0 z m 18.967 0 a 1.5 1.5 0 1 1 -3 0 a 1.5 1.5 0 0 1 3 0 z m 18.968 0 a 1.5 1.5 0 1 1 -3 0 a 1.5 1.5 0 0 1 3 0 z m -208.647 19.223 a 1.5 1.5 0 1 1 -2.998 0.001 a 1.5 1.5 0 0 1 2.998 -0.001 z m 18.968 0 a 1.5 1.5 0 1 1 -3 0 a 1.5 1.5 0 0 1 3 0 z m 18.968 0 a 1.5 1.5 0 1 1 -3 0 a 1.5 1.5 0 0 1 3 0 z m 18.968 0 a 1.5 1.5 0 1 1 -3 0 a 1.5 1.5 0 0 1 3 0 z m 18.968 0 a 1.5 1.5 0 1 1 -3 0 a 1.5 1.5 0 0 1 3 0 z m 18.967 0 a 1.5 1.5 0 1 1 -2.998 0.001 a 1.5 1.5 0 0 1 2.998 -0.001 z m 18.968 0 a 1.5 1.5 0 1 1 -2.998 0.001 a 1.5 1.5 0 0 1 2.998 -0.001 z m 18.969 0 a 1.5 1.5 0 1 1 -3 0 a 1.5 1.5 0 0 1 3 0 z m 18.968 0 a 1.5 1.5 0 1 1 -3 0 a 1.5 1.5 0 0 1 3 0 z m 18.968 0 a 1.5 1.5 0 1 1 -3 0 a 1.5 1.5 0 0 1 3 0 z m 18.967 0 a 1.5 1.5 0 1 1 -3 0 a 1.5 1.5 0 0 1 3 0 z m 18.968 0 a 1.5 1.5 0 1 1 -3 0 a 1.5 1.5 0 0 1 3 0 z m -208.647 19.223 a 1.5 1.5 0 1 1 -2.998 0.001 a 1.5 1.5 0 0 1 2.998 -0.001 z m 18.968 0 a 1.5 1.5 0 1 1 -3 0 a 1.5 1.5 0 0 1 3 0 z m 18.968 0 a 1.5 1.5 0 1 1 -3 0 a 1.5 1.5 0 0 1 3 0 z m 18.968 0 a 1.5 1.5 0 1 1 -3 0 a 1.5 1.5 0 0 1 3 0 z m 18.968 0 a 1.5 1.5 0 1 1 -3 0 a 1.5 1.5 0 0 1 3 0 z m 18.967 0 a 1.5 1.5 0 1 1 -2.998 0.001 a 1.5 1.5 0 0 1 2.998 -0.001 z m 18.968 0 a 1.5 1.5 0 1 1 -2.998 0.001 a 1.5 1.5 0 0 1 2.998 -0.001 z m 18.969 0 a 1.5 1.5 0 1 1 -3 0 a 1.5 1.5 0 0 1 3 0 z m 18.968 0 a 1.5 1.5 0 1 1 -3 0 a 1.5 1.5 0 0 1 3 0 z m 18.968 0 a 1.5 1.5 0 1 1 -3 0 a 1.5 1.5 0 0 1 3 0 z m 18.967 0 a 1.5 1.5 0 1 1 -3 0 a 1.5 1.5 0 0 1 3 0 z m 18.968 0 a 1.5 1.5 0 1 1 -3 0 a 1.5 1.5 0 0 1 3 0 z m -208.647 19.224 a 1.5 1.5 0 1 1 -3 0 a 1.5 1.5 0 0 1 3 0 z m 18.968 0 a 1.5 1.5 0 1 1 -3 -0.002 a 1.5 1.5 0 0 1 3 0.001 z m 18.968 0 a 1.5 1.5 0 1 1 -3.001 -0.002 a 1.5 1.5 0 0 1 3.001 0.001 z m 18.968 0 a 1.5 1.5 0 1 1 -3.001 -0.002 a 1.5 1.5 0 0 1 3 0.001 z m 18.968 0 a 1.5 1.5 0 1 1 -3.001 -0.002 a 1.5 1.5 0 0 1 3 0.001 z m 18.967 0 a 1.5 1.5 0 1 1 -3 0 a 1.5 1.5 0 0 1 3 0 z m 18.968 0 a 1.5 1.5 0 1 1 -3 0 a 1.5 1.5 0 0 1 3 0 z m 18.969 0 a 1.5 1.5 0 1 1 -3.001 -0.002 a 1.5 1.5 0 0 1 3.001 0.001 z m 18.968 0 a 1.5 1.5 0 1 1 -3.001 -0.002 a 1.5 1.5 0 0 1 3 0.001 z m 18.968 0 a 1.5 1.5 0 1 1 -3.002 -0.002 a 1.5 1.5 0 0 1 3.002 0.001 z m 18.967 0 a 1.5 1.5 0 1 1 -3 -0.002 a 1.5 1.5 0 0 1 3 0.001 z m 18.968 0 a 1.5 1.5 0 1 1 -3.001 -0.002 a 1.5 1.5 0 0 1 3.001 0.001 z m -208.647 19.222 a 1.5 1.5 0 1 1 -3 0 a 1.5 1.5 0 0 1 3 0 z m 18.968 0 a 1.5 1.5 0 1 1 -3 0 a 1.5 1.5 0 0 1 3 0 z m 18.968 0 a 1.5 1.5 0 1 1 -3.001 0 a 1.5 1.5 0 0 1 3.001 0 z m 18.968 0 a 1.5 1.5 0 1 1 -3.001 0 a 1.5 1.5 0 0 1 3 0 z m 18.968 0 a 1.5 1.5 0 1 1 -3.001 0 a 1.5 1.5 0 0 1 3 0 z m 18.967 0 a 1.5 1.5 0 1 1 -3 0 a 1.5 1.5 0 0 1 3 0 z m 18.968 0 a 1.5 1.5 0 1 1 -3 0 a 1.5 1.5 0 0 1 3 0 z m 18.969 0 a 1.5 1.5 0 1 1 -3.001 0 a 1.5 1.5 0 0 1 3.001 0 z m 18.968 0 a 1.5 1.5 0 1 1 -3.001 0 a 1.5 1.5 0 0 1 3 0 z m 18.968 0 a 1.5 1.5 0 1 1 -3.002 0 a 1.5 1.5 0 0 1 3.002 0 z m 18.967 0 a 1.5 1.5 0 1 1 -3 0 a 1.5 1.5 0 0 1 3 0 z m 18.968 0 a 1.5 1.5 0 1 1 -3.001 0 a 1.5 1.5 0 0 1 3.001 0 z m -208.647 19.223 a 1.5 1.5 0 1 1 -2.998 0.001 a 1.5 1.5 0 0 1 2.998 -0.001 z m 18.968 0 a 1.5 1.5 0 1 1 -3 0 a 1.5 1.5 0 0 1 3 0 z m 18.968 0 a 1.5 1.5 0 1 1 -3 0 a 1.5 1.5 0 0 1 3 0 z m 18.968 0 a 1.5 1.5 0 1 1 -3 0 a 1.5 1.5 0 0 1 3 0 z m 18.968 0 a 1.5 1.5 0 1 1 -3 0 a 1.5 1.5 0 0 1 3 0 z m 18.967 0 a 1.5 1.5 0 1 1 -2.998 0.001 a 1.5 1.5 0 0 1 2.998 -0.001 z m 18.968 0 a 1.5 1.5 0 1 1 -2.998 0.001 a 1.5 1.5 0 0 1 2.998 -0.001 z m 18.969 0 a 1.5 1.5 0 1 1 -3 0 a 1.5 1.5 0 0 1 3 0 z m 18.968 0 a 1.5 1.5 0 1 1 -3 0 a 1.5 1.5 0 0 1 3 0 z m 18.968 0 a 1.5 1.5 0 1 1 -3 0 a 1.5 1.5 0 0 1 3 0 z m 18.967 0 a 1.5 1.5 0 1 1 -3 0 a 1.5 1.5 0 0 1 3 0 z m 18.968 0 a 1.5 1.5 0 1 1 -3 0 a 1.5 1.5 0 0 1 3 0 z m -208.647 19.223 a 1.5 1.5 0 1 1 -2.998 0.002 a 1.5 1.5 0 0 1 2.998 -0.002 z m 18.968 0 a 1.5 1.5 0 1 1 -3 0 a 1.5 1.5 0 0 1 3 0 z m 18.968 0 a 1.5 1.5 0 1 1 -3 0 a 1.5 1.5 0 0 1 3 0 z m 18.968 0 a 1.5 1.5 0 1 1 -3 0 a 1.5 1.5 0 0 1 3 0 z m 18.968 0 a 1.5 1.5 0 1 1 -3 0 a 1.5 1.5 0 0 1 3 0 z m 18.967 0 a 1.5 1.5 0 1 1 -2.998 0.002 a 1.5 1.5 0 0 1 2.998 -0.002 z m 18.968 0 a 1.5 1.5 0 1 1 -2.998 0.002 a 1.5 1.5 0 0 1 2.998 -0.002 z m 18.969 0 a 1.5 1.5 0 1 1 -3 0 a 1.5 1.5 0 0 1 3 0 z m 18.968 0 a 1.5 1.5 0 1 1 -3 0 a 1.5 1.5 0 0 1 3 0 z m 18.968 0 a 1.5 1.5 0 1 1 -3 0 a 1.5 1.5 0 0 1 3 0 z m 18.967 0 a 1.5 1.5 0 1 1 -3 0 a 1.5 1.5 0 0 1 3 0 z m 18.968 0 a 1.5 1.5 0 1 1 -3 0 a 1.5 1.5 0 0 1 3 0 z m -208.647 19.223 a 1.5 1.5 0 1 1 -2.998 0.002 a 1.5 1.5 0 0 1 2.998 -0.002 z m 18.968 0 a 1.5 1.5 0 1 1 -3 0 a 1.5 1.5 0 0 1 3 0 z m 18.968 0 a 1.5 1.5 0 1 1 -3 0 a 1.5 1.5 0 0 1 3 0 z m 18.968 0 a 1.5 1.5 0 1 1 -3 0 a 1.5 1.5 0 0 1 3 0 z m 18.968 0 a 1.5 1.5 0 1 1 -3 0 a 1.5 1.5 0 0 1 3 0 z m 18.967 0 a 1.5 1.5 0 1 1 -2.998 0.002 a 1.5 1.5 0 0 1 2.998 -0.002 z m 18.968 0 a 1.5 1.5 0 1 1 -2.998 0.002 a 1.5 1.5 0 0 1 2.998 -0.002 z m 18.969 0 a 1.5 1.5 0 1 1 -3 0 a 1.5 1.5 0 0 1 3 0 z m 18.968 0 a 1.5 1.5 0 1 1 -3 0 a 1.5 1.5 0 0 1 3 0 z m 18.968 0 a 1.5 1.5 0 1 1 -3 0 a 1.5 1.5 0 0 1 3 0 z m 18.967 0 a 1.5 1.5 0 1 1 -3 0 a 1.5 1.5 0 0 1 3 0 z m 18.968 0 a 1.5 1.5 0 1 1 -3 0 a 1.5 1.5 0 0 1 3 0 z"/>
</svg>
