<svg xmlns="http://www.w3.org/2000/svg"
     width="67"
     height="9"
     viewBox="-17 0 130 0.3"
     data-shape="true"
     aria-hidden="true" id="cs-pattern-right"
     stroke="#4831d4"
     fill="none"
>
    <path d="m 0 0 a 7.891 7.891 0 1 1 -15.782 0 a 7.891 7.891 0 0 1 15.782 0 z m 28.069 0 a 7.892 7.892 0 1 1 -15.784 -0.002 a 7.892 7.892 0 0 1 15.784 0.002 z m 28.068 0 a 7.891 7.891 0 1 1 -15.782 0 a 7.891 7.891 0 0 1 15.783 0 z m 28.07 0 a 7.892 7.892 0 1 1 -15.783 -0.002 a 7.892 7.892 0 0 1 15.783 0.002 z m 28.068 0 a 7.891 7.891 0 1 1 -15.782 0 a 7.891 7.891 0 0 1 15.782 0 z"/>
</svg>